<svg width="468" height="80" viewBox="0 0 468 80" fill="none" xmlns="http://www.w3.org/2000/svg">
  <path d="M101.613 0.0213068H100.496V80H101.613V0.0213068Z" fill="#222222"/>
  <path d="M372.798 45.9291H367.871C367.647 45.9291 367.445 45.7813 367.381 45.5701L359.241 20.3887C359.134 20.0614 359.379 19.7235 359.73 19.7235H364.657C364.881 19.7235 365.083 19.8713 365.147 20.0825L373.287 45.2639C373.393 45.5912 373.149 45.9291 372.798 45.9291Z" fill="#222222"/>
  <path d="M385.524 45.9291H380.598C380.374 45.9291 380.172 45.7813 380.108 45.5701L371.968 20.3887C371.861 20.0614 372.106 19.7235 372.457 19.7235H377.384C377.607 19.7235 377.81 19.8713 377.873 20.0825L386.014 45.2639C386.12 45.5912 385.875 45.9291 385.524 45.9291Z" fill="#222222"/>
  <path d="M390.217 20.0825C390.153 19.8713 389.951 19.7235 389.728 19.7235H384.801C384.45 19.7235 384.205 20.0614 384.311 20.3887L388.866 34.5051C389.015 34.9802 389.696 34.9802 389.845 34.5051L392.26 27.0404C392.324 26.8398 392.324 26.618 392.26 26.4174L390.217 20.0825Z" fill="#222222"/>
  <path d="M297.246 45.9291C296.895 45.9291 296.544 45.644 296.544 45.2428V7.45483C296.544 7.05362 296.895 6.70519 297.246 6.70519H309.728C312.803 6.70519 316.113 7.10641 318.837 9.00689C321.22 10.6223 322.902 13.1563 322.902 16.6722C322.902 20.8744 320.933 23.7568 317.741 25.1927V25.425C323.37 26.523 326.158 30.2078 326.158 35.3919C326.158 42.7088 319.603 45.9291 312.984 45.9291H297.246ZM313.899 13.0401C312.739 12.2905 311.292 11.9421 309.781 11.9421H303.045V23.4083H309.196C310.707 23.4083 312.335 23.2922 313.612 22.6587C315.176 21.8563 316.336 20.2409 316.336 17.7069C316.336 15.458 315.346 13.9587 313.899 13.0401ZM316.4 29.511C315.006 28.7614 313.154 28.5924 310.186 28.5924H303.045V40.6922H311.58C313.208 40.6922 314.719 40.5232 315.996 40.0059C318.081 39.1401 319.539 37.4719 319.539 34.5895C319.539 32.4567 318.549 30.5563 316.4 29.5216V29.511Z" fill="#222222"/>
  <path d="M333.755 23.0071C336.309 20.6421 339.853 19.2062 343.801 19.2062C347.749 19.2062 351.292 20.6421 353.846 23.0071C356.4 25.425 357.911 28.8247 357.911 32.858C357.911 36.8912 356.464 40.4071 353.846 42.7616C351.356 45.1266 347.695 46.5098 343.801 46.5098C339.906 46.5098 336.256 45.1266 333.755 42.7616C331.148 40.3965 329.637 36.944 329.637 32.858C329.637 28.7719 331.202 25.425 333.755 23.0071ZM337.82 39.0134C339.268 40.5655 341.364 41.5474 343.801 41.5474C346.237 41.5474 348.27 40.5655 349.717 39.0134C351.164 37.398 352.037 35.3286 352.037 32.8474C352.037 30.3662 351.164 28.2968 349.717 26.6814C348.27 25.1293 346.174 24.1474 343.801 24.1474C341.428 24.1474 339.278 25.1293 337.82 26.6814C336.373 28.2968 335.554 30.3662 335.554 32.8474C335.554 35.3286 336.363 37.398 337.82 39.0134Z" fill="#222222"/>
  <path d="M417.416 39.7631C417.937 39.478 418.288 39.6469 418.458 39.932L420.023 42.8144C420.257 43.1628 420.086 43.5007 419.735 43.733C417.586 45.2322 413.755 46.4992 409.754 46.4992C405.338 46.4992 401.741 45.0633 399.304 42.466C396.985 40.0481 395.644 36.5956 395.644 32.499C395.644 28.698 397.038 25.3616 399.358 22.9332C401.56 20.6315 404.817 19.2484 408.998 19.2484C413.521 19.2484 416.894 20.9166 418.927 23.5667C420.842 26.0479 421.651 29.6694 421.427 33.6498C421.363 34.1144 421.076 34.4523 420.619 34.4523H401.922C402.092 36.5217 402.795 38.0843 403.891 39.2879C405.338 40.9561 407.551 41.8219 410.158 41.8219C413 41.8219 415.383 40.9561 417.416 39.7525V39.7631ZM415.681 30.4929C415.564 28.6452 415.043 27.2093 413.936 26.0057C412.829 24.7915 411.148 23.989 408.945 23.989C406.743 23.989 404.827 24.7915 403.667 26.1218C402.678 27.2727 402.039 28.8247 401.922 30.5035H415.681V30.4929Z" fill="#222222"/>
  <path d="M432.356 33.2592V45.2428C432.356 45.644 432.068 45.9291 431.664 45.9291H427.142C426.737 45.9291 426.386 45.644 426.386 45.2428V20.4204C426.386 20.0719 426.737 19.7341 427.142 19.7341H431.441C431.845 19.7341 432.196 20.0825 432.196 20.4204V22.9543H432.366C433.994 20.5365 436.25 19.2695 439.272 19.2695C441.762 19.2695 443.976 20.0191 445.657 21.4023C446.008 21.6873 446.125 22.0886 445.944 22.3842L444.263 25.8367C444.093 26.1852 443.678 26.3013 443.22 26.0057C441.709 25.0871 440.262 24.5064 438.347 24.5064C433.824 24.5064 432.366 29.1731 432.366 33.2592H432.356Z" fill="#222222"/>
  <path d="M461.278 38.9606C461.278 37.2291 459.884 36.4794 458.139 35.677C456.511 34.9274 454.138 34.2939 452.159 33.3753C449.317 32.0555 447.806 29.9228 447.806 26.6392C447.806 22.0358 451.403 19.2062 457.852 19.2062C461.736 19.2062 464.353 20.1247 466.269 21.1594C466.737 21.3917 466.79 21.7401 466.62 22.078L464.992 25.3616C464.758 25.7628 464.47 25.8262 464.066 25.5939C462.151 24.5592 460.118 24.0418 458.203 24.0418C455.702 24.0418 453.968 24.7915 453.968 26.523C453.968 28.0223 455.245 28.7719 456.809 29.4582C458.607 30.2078 460.874 30.8941 462.672 31.7599C466.098 33.4281 467.429 35.4447 467.429 38.4433C467.429 43.2262 463.428 46.5098 456.979 46.5098C452.51 46.5098 449.605 45.4117 447.753 44.2081C447.402 43.9758 447.285 43.6907 447.466 43.3423L449.094 40.0587C449.264 39.6575 449.615 39.5413 450.02 39.7736C452.105 41.0934 454.372 41.9064 456.692 41.9064C459.363 41.9064 461.278 40.9878 461.278 38.9712V38.9606Z" fill="#222222"/>
  <path d="M121.009 26.2907C121.009 15.0568 130.298 6.18784 141.908 6.18784C147.484 6.18784 151.197 7.62376 153.921 9.12303C154.39 9.35531 154.507 9.75653 154.273 10.1049L152.24 14.3071C152.07 14.7717 151.655 14.7717 151.314 14.5922C148.878 13.3252 145.973 12.0054 141.737 12.0054C134.193 12.0054 127.744 18.3404 127.744 26.2907C127.744 34.8112 134.076 40.6922 141.791 40.6922C145.973 40.6922 149.101 39.4252 151.538 38.0421C151.942 37.8098 152.23 37.8731 152.464 38.2743L154.496 42.5927C154.666 42.9939 154.613 43.2789 154.145 43.5112C151.123 45.1266 147.409 46.5098 141.727 46.5098C129.479 46.5098 121.009 38.6228 121.009 26.2907Z" fill="#B31B1B"/>
  <path d="M160.647 23.0071C163.2 20.6421 166.744 19.2062 170.692 19.2062C174.64 19.2062 178.183 20.6421 180.737 23.0071C183.291 25.425 184.802 28.8247 184.802 32.858C184.802 36.8912 183.355 40.4071 180.737 42.7616C178.247 45.1266 174.586 46.5098 170.692 46.5098C166.797 46.5098 163.147 45.1266 160.647 42.7616C158.029 40.3965 156.529 36.944 156.529 32.858C156.529 28.7719 158.093 25.425 160.647 23.0071ZM164.711 39.0134C166.159 40.5655 168.255 41.5474 170.692 41.5474C173.129 41.5474 175.161 40.5655 176.608 39.0134C178.055 37.398 178.928 35.3286 178.928 32.8474C178.928 30.3662 178.055 28.2968 176.608 26.6814C175.161 25.1293 173.065 24.1474 170.692 24.1474C168.319 24.1474 166.169 25.1293 164.711 26.6814C163.264 28.2968 162.445 30.3662 162.445 32.8474C162.445 35.3286 163.254 37.398 164.711 39.0134Z" fill="#B31B1B"/>
  <path d="M195.049 33.2592V45.2428C195.049 45.644 194.762 45.9291 194.357 45.9291H189.835C189.431 45.9291 189.08 45.644 189.08 45.2428V20.4204C189.08 20.0719 189.431 19.7341 189.835 19.7341H194.134C194.538 19.7341 194.89 20.0825 194.89 20.4204V22.9543H195.06C196.688 20.5365 198.944 19.2695 201.966 19.2695C204.456 19.2695 206.669 20.0191 208.351 21.4023C208.702 21.6873 208.819 22.0886 208.638 22.3842L206.957 25.8367C206.786 26.1852 206.371 26.3013 205.914 26.0057C204.403 25.0871 202.955 24.5064 201.04 24.5064C196.518 24.5064 195.06 29.1731 195.06 33.2592H195.049Z" fill="#B31B1B"/>
  <path d="M236.901 45.2428C236.901 45.644 236.613 45.9291 236.209 45.9291H231.623C231.218 45.9291 230.931 45.644 230.931 45.2428V31.6543C230.931 29.2893 230.58 27.1671 229.25 25.7839C228.324 24.8654 226.983 24.2847 225.014 24.2847C222.344 24.2847 220.258 25.4989 218.981 27.7372C217.991 29.5216 217.587 31.7071 217.587 33.8399V45.2428C217.587 45.644 217.3 45.9291 216.895 45.9291H212.373C211.968 45.9291 211.617 45.644 211.617 45.2428V20.4204C211.617 20.0719 211.968 19.7341 212.373 19.7341H216.672C217.076 19.7341 217.427 20.0825 217.427 20.4204V23.2394H217.598C219.513 20.5893 222.535 19.2062 226.185 19.2062C229.207 19.2062 231.931 19.9558 233.846 21.6873C235.815 23.4189 236.922 26.2379 236.922 30.2078V45.2428H236.901Z" fill="#B31B1B"/>
  <path d="M262.78 39.7631C263.301 39.478 263.652 39.6469 263.822 39.932L265.387 42.8144C265.621 43.1628 265.451 43.5007 265.099 43.733C262.95 45.2322 259.119 46.4992 255.118 46.4992C250.702 46.4992 247.105 45.0633 244.668 42.466C242.349 40.0481 241.008 36.5956 241.008 32.499C241.008 28.698 242.402 25.3616 244.722 22.9332C246.924 20.6315 250.181 19.2484 254.362 19.2484C258.885 19.2484 262.258 20.9166 264.291 23.5667C266.206 26.0479 267.015 29.6694 266.791 33.6498C266.727 34.1144 266.44 34.4523 265.983 34.4523H247.286C247.456 36.5217 248.159 38.0843 249.255 39.2879C250.702 40.9561 252.915 41.8219 255.522 41.8219C258.364 41.8219 260.747 40.9561 262.78 39.7525V39.7631ZM261.034 30.4929C260.917 28.6452 260.396 27.2093 259.289 26.0057C258.183 24.7915 256.501 23.989 254.299 23.989C252.096 23.989 250.181 24.7915 249.021 26.1218C248.031 27.2727 247.393 28.8247 247.276 30.5035H261.034V30.4929Z" fill="#B31B1B"/>
  <path d="M272.495 6.70519H277.017C277.422 6.70519 277.709 7.05362 277.709 7.45483V45.2322C277.709 45.6334 277.422 45.9185 277.017 45.9185H272.495C272.09 45.9185 271.739 45.6334 271.739 45.2322V7.45483C271.739 7.05362 272.09 6.70519 272.495 6.70519Z" fill="#B31B1B"/>
  <path d="M284.924 6.70519H289.446C289.85 6.70519 290.138 7.05362 290.138 7.45483V45.2322C290.138 45.6334 289.85 45.9185 289.446 45.9185H284.924C284.519 45.9185 284.168 45.6334 284.168 45.2322V7.45483C284.168 7.05362 284.519 6.70519 284.924 6.70519Z" fill="#B31B1B"/>
  <path d="M122.895 65.2398C122.895 61.7661 125.811 58.926 129.386 58.926C131.153 58.926 132.323 59.4116 133.174 59.9079C133.302 59.9818 133.334 60.0662 133.281 60.1824L132.844 61.0904C132.791 61.2171 132.685 61.196 132.589 61.1432C131.844 60.7314 130.844 60.2352 129.344 60.2352C126.662 60.2352 124.406 62.5158 124.406 65.2503C124.406 68.2489 126.683 70.2972 129.365 70.2972C130.844 70.2972 131.897 69.8221 132.642 69.3786C132.749 69.3047 132.823 69.3258 132.898 69.4314L133.334 70.3711C133.366 70.4661 133.355 70.5295 133.238 70.6034C132.312 71.1313 131.142 71.5958 129.333 71.5958C125.651 71.5958 122.884 69.1041 122.884 65.2503L122.895 65.2398Z" fill="#222222"/>
  <path d="M135.739 64.3212C136.526 63.5399 137.633 63.0965 138.878 63.0965C140.123 63.0965 141.23 63.5505 142.017 64.3212C142.783 65.0603 143.241 66.1161 143.241 67.3409C143.241 68.5656 142.783 69.6215 142.017 70.3605C141.23 71.1418 140.123 71.5853 138.878 71.5853C137.633 71.5853 136.526 71.1313 135.739 70.3605C134.973 69.6215 134.515 68.5656 134.515 67.3409C134.515 66.1161 134.973 65.0603 135.739 64.3212ZM136.654 69.5475C137.186 70.1494 137.963 70.5083 138.878 70.5083C139.793 70.5083 140.57 70.1494 141.102 69.5475C141.634 68.988 141.921 68.2066 141.921 67.3409C141.921 66.4751 141.634 65.6938 141.102 65.1342C140.57 64.5324 139.793 64.1734 138.878 64.1734C137.963 64.1734 137.186 64.5324 136.654 65.1342C136.122 65.6938 135.835 66.4751 135.835 67.3409C135.835 68.2066 136.122 68.988 136.654 69.5475Z" fill="#222222"/>
  <path d="M145.454 59.0949H146.444C146.54 59.0949 146.603 59.1899 146.603 59.2744V71.2474C146.603 71.3425 146.529 71.4058 146.444 71.4058H145.454C145.358 71.4058 145.273 71.3319 145.273 71.2474V59.2744C145.273 59.1793 145.369 59.0949 145.454 59.0949Z" fill="#222222"/>
  <path d="M149.306 59.0949H150.296C150.392 59.0949 150.455 59.1899 150.455 59.2744V71.2474C150.455 71.3425 150.381 71.4058 150.296 71.4058H149.306C149.21 71.4058 149.125 71.3319 149.125 71.2474V59.2744C149.125 59.1793 149.221 59.0949 149.306 59.0949Z" fill="#222222"/>
  <path d="M159.426 69.7798C159.575 69.6848 159.66 69.7482 159.703 69.8115L160.054 70.4767C160.107 70.5717 160.075 70.635 159.979 70.709C159.309 71.163 158.117 71.5747 156.84 71.5747C155.478 71.5747 154.339 71.0996 153.595 70.255C152.903 69.4948 152.52 68.4495 152.52 67.2142C152.52 66.0528 152.924 65.0075 153.616 64.2684C154.308 63.5293 155.308 63.0753 156.627 63.0753C157.947 63.0753 158.979 63.6033 159.617 64.374C160.224 65.1342 160.543 66.2006 160.479 67.4887C160.479 67.6154 160.384 67.6893 160.256 67.6893H153.914C153.967 68.3756 154.201 69.0091 154.627 69.4948C155.159 70.1282 155.957 70.4872 156.957 70.4872C157.957 70.4872 158.766 70.1599 159.437 69.7587L159.426 69.7798ZM159.181 66.7391C159.149 66 158.904 65.3876 158.511 64.9336C158.096 64.4796 157.436 64.1523 156.617 64.1523C155.701 64.1523 155.01 64.4796 154.552 65.0075C154.169 65.4615 153.935 66.095 153.893 66.7391H159.181Z" fill="#222222"/>
  <path d="M167.62 73.8342C168.035 73.3591 168.237 72.6939 168.237 71.807V70.7617C167.492 71.3741 166.704 71.5747 165.779 71.5747C164.608 71.5747 163.736 71.1418 163.118 70.4556C162.405 69.6637 162.044 68.534 162.044 67.3303C162.044 66.1267 162.373 65.0286 163.086 64.2156C163.704 63.5294 164.597 63.0965 165.768 63.0965C166.938 63.0965 167.705 63.5294 168.226 63.9517H168.279V63.4238C168.279 63.3287 168.354 63.2443 168.439 63.2443H169.386C169.492 63.2443 169.567 63.3393 169.567 63.4238V71.6698C169.567 72.9684 169.237 73.982 168.524 74.6683C167.886 75.3018 166.917 75.608 165.683 75.608C164.448 75.608 163.406 75.2279 162.671 74.7422C162.576 74.6894 162.544 74.6155 162.597 74.5205L162.959 73.792C163.012 73.6969 163.108 73.6653 163.235 73.7603C163.906 74.2143 164.714 74.5416 165.693 74.5416C166.566 74.5416 167.204 74.2882 167.609 73.8342H167.62ZM168.237 69.6003V65.1131C167.758 64.733 167.066 64.1734 165.917 64.1734C165.119 64.1734 164.491 64.5007 164.097 65.0075C163.608 65.6093 163.384 66.4329 163.384 67.3092C163.384 68.2278 163.608 69.083 164.076 69.6637C164.491 70.1705 165.076 70.4767 165.896 70.4767C166.864 70.4767 167.609 70.1283 168.226 69.6109L168.237 69.6003Z" fill="#222222"/>
  <path d="M178.559 69.7798C178.708 69.6848 178.793 69.7482 178.835 69.8115L179.186 70.4767C179.24 70.5717 179.208 70.635 179.112 70.709C178.441 71.163 177.25 71.5747 175.973 71.5747C174.611 71.5747 173.472 71.0996 172.727 70.255C172.036 69.4948 171.652 68.4495 171.652 67.2142C171.652 66.0528 172.057 65.0075 172.748 64.2684C173.44 63.5293 174.44 63.0753 175.76 63.0753C177.079 63.0753 178.112 63.6033 178.75 64.374C179.357 65.1342 179.676 66.2006 179.612 67.4887C179.612 67.6154 179.516 67.6893 179.389 67.6893H173.046C173.1 68.3756 173.334 69.0091 173.759 69.4948C174.291 70.1282 175.09 70.4872 176.09 70.4872C177.09 70.4872 177.899 70.1599 178.569 69.7587L178.559 69.7798ZM178.324 66.7391C178.292 66 178.048 65.3876 177.654 64.9336C177.239 64.4796 176.579 64.1523 175.76 64.1523C174.845 64.1523 174.153 64.4796 173.696 65.0075C173.312 65.4615 173.078 66.095 173.036 66.7391H178.324Z" fill="#222222"/>
  <path d="M187.05 64.3212C187.838 63.5399 188.944 63.0965 190.189 63.0965C191.434 63.0965 192.541 63.5505 193.328 64.3212C194.094 65.0603 194.552 66.1161 194.552 67.3409C194.552 68.5656 194.094 69.6215 193.328 70.3605C192.541 71.1418 191.434 71.5853 190.189 71.5853C188.944 71.5853 187.838 71.1313 187.05 70.3605C186.284 69.6215 185.826 68.5656 185.826 67.3409C185.826 66.1161 186.284 65.0603 187.05 64.3212ZM187.965 69.5475C188.497 70.1494 189.274 70.5083 190.189 70.5083C191.104 70.5083 191.881 70.1494 192.413 69.5475C192.945 68.988 193.233 68.2066 193.233 67.3409C193.233 66.4751 192.945 65.6938 192.413 65.1342C191.881 64.5324 191.104 64.1734 190.189 64.1734C189.274 64.1734 188.497 64.5324 187.965 65.1342C187.433 65.6938 187.146 66.4751 187.146 67.3409C187.146 68.2066 187.433 68.988 187.965 69.5475Z" fill="#222222"/>
  <path d="M198.542 60.4991C198.255 60.8475 198.159 61.386 198.159 62.0723V63.2337H200.617C200.713 63.2337 200.777 63.3287 200.777 63.4132V64.1206C200.777 64.2156 200.703 64.279 200.617 64.279H198.159V71.2474C198.159 71.3425 198.085 71.4058 197.978 71.4058H196.989C196.893 71.4058 196.829 71.3319 196.829 71.2474V64.279H195.776C195.68 64.279 195.595 64.2051 195.595 64.1206V63.4132C195.595 63.3182 195.691 63.2337 195.776 63.2337H196.829V61.9456C196.829 61.0059 197.01 60.1402 197.563 59.5806C197.968 59.1794 198.553 58.9471 199.351 58.9471C200.351 58.9471 201.224 59.2744 201.799 59.7073C201.894 59.7601 201.905 59.8656 201.873 59.9395L201.543 60.6047C201.49 60.7103 201.362 60.7314 201.256 60.6575C200.745 60.2563 200.213 60.0557 199.638 60.0557C199.149 60.0557 198.798 60.2035 198.564 60.4886L198.542 60.4991Z" fill="#222222"/>
  <path d="M206.757 65.2398C206.757 61.7661 209.673 58.926 213.248 58.926C215.015 58.926 216.185 59.4116 217.037 59.9079C217.164 59.9818 217.196 60.0662 217.143 60.1824L216.707 61.0904C216.654 61.2171 216.547 61.196 216.451 61.1432C215.706 60.7314 214.706 60.2352 213.206 60.2352C210.524 60.2352 208.268 62.5158 208.268 65.2503C208.268 68.2489 210.546 70.2972 213.227 70.2972C214.706 70.2972 215.76 69.8221 216.505 69.3786C216.611 69.3047 216.685 69.3258 216.76 69.4314L217.196 70.3711C217.228 70.4661 217.218 70.5295 217.1 70.6034C216.175 71.1313 215.004 71.5958 213.195 71.5958C209.513 71.5958 206.747 69.1041 206.747 65.2503L206.757 65.2398Z" fill="#222222"/>
  <path d="M219.601 64.3212C220.389 63.5399 221.495 63.0965 222.74 63.0965C223.985 63.0965 225.092 63.5505 225.879 64.3212C226.646 65.0603 227.103 66.1161 227.103 67.3409C227.103 68.5656 226.646 69.6215 225.879 70.3605C225.092 71.1418 223.985 71.5853 222.74 71.5853C221.495 71.5853 220.389 71.1313 219.601 70.3605C218.835 69.6215 218.377 68.5656 218.377 67.3409C218.377 66.1161 218.835 65.0603 219.601 64.3212ZM220.516 69.5475C221.048 70.1494 221.825 70.5083 222.74 70.5083C223.655 70.5083 224.432 70.1494 224.964 69.5475C225.496 68.988 225.784 68.2066 225.784 67.3409C225.784 66.4751 225.496 65.6938 224.964 65.1342C224.432 64.5324 223.655 64.1734 222.74 64.1734C221.825 64.1734 221.048 64.5324 220.516 65.1342C219.984 65.6938 219.697 66.4751 219.697 67.3409C219.697 68.2066 219.984 68.988 220.516 69.5475Z" fill="#222222"/>
  <path d="M230.487 64.2156C231.03 63.4871 231.849 63.0965 232.892 63.0965C233.583 63.0965 234.243 63.2548 234.754 63.6349C235.158 63.92 235.446 64.3001 235.627 64.7963C235.829 64.3634 236.159 63.8883 236.723 63.5293C237.212 63.2232 237.819 63.0965 238.415 63.0965C239.276 63.0965 240.075 63.3182 240.66 63.8883C241.192 64.3951 241.532 65.187 241.532 66.3801V71.2474C241.532 71.3425 241.458 71.4058 241.373 71.4058H240.372C240.277 71.4058 240.192 71.3319 240.192 71.2474V66.7074C240.192 65.8733 240.011 65.2081 239.649 64.8069C239.298 64.4268 238.787 64.2473 238.159 64.2473C237.489 64.2473 236.882 64.5007 236.499 65.1131C236.148 65.6938 236.02 66.4329 236.02 67.3514V71.2369C236.02 71.3319 235.946 71.3952 235.861 71.3952H234.86C234.765 71.3952 234.679 71.3213 234.679 71.2369V66.6968C234.679 65.8627 234.499 65.1975 234.137 64.7963C233.786 64.4162 233.275 64.2367 232.647 64.2367C231.977 64.2367 231.37 64.4902 230.987 65.1025C230.7 65.5882 230.508 66.3167 230.508 67.1614V71.2263C230.508 71.3213 230.434 71.3847 230.349 71.3847H229.348C229.253 71.3847 229.167 71.3108 229.167 71.2263V63.3921C229.167 63.2971 229.263 63.2126 229.348 63.2126H230.274C230.37 63.2126 230.455 63.3076 230.455 63.3921V64.184H230.508L230.487 64.2156Z" fill="#222222"/>
  <path d="M246.651 63.0859C248.077 63.0859 249.311 63.466 250.184 64.2579C250.95 64.9653 251.439 65.9894 251.439 67.3198C251.439 68.6501 251.035 69.632 250.396 70.3077C249.556 71.2263 248.321 71.5958 247.257 71.5958C246.47 71.5958 245.927 71.5008 245.321 71.2369V75.4285C245.321 75.5235 245.246 75.5869 245.161 75.5869H244.171C244.076 75.5869 243.99 75.513 243.99 75.4285V63.5505C243.99 63.4449 244.044 63.3499 244.193 63.3182C244.852 63.1915 245.757 63.0965 246.64 63.0965L246.651 63.0859ZM245.331 70.1283C245.874 70.4028 246.374 70.5083 247.14 70.5083C247.832 70.5083 248.673 70.2866 249.29 69.6742C249.8 69.1886 250.109 68.3861 250.109 67.3198C250.109 66.3378 249.8 65.5882 249.237 65.0392C248.63 64.4585 247.779 64.1523 246.778 64.1523C246.3 64.1523 245.778 64.2051 245.342 64.2579V70.1177L245.331 70.1283Z" fill="#222222"/>
  <path d="M253.387 63.4132C253.387 63.3182 253.461 63.2337 253.546 63.2337H254.536C254.642 63.2337 254.717 63.3287 254.717 63.4132V67.8265C254.717 68.5551 254.812 68.988 255.047 69.4209C255.398 70.0016 256.089 70.4133 257.175 70.4133C258.26 70.4133 258.984 70.0121 259.292 69.4314C259.548 68.9985 259.622 68.5445 259.622 67.8265V63.4132C259.622 63.3182 259.718 63.2337 259.803 63.2337H260.793C260.888 63.2337 260.952 63.3287 260.952 63.4132V67.9533C260.952 68.9985 260.771 69.6531 260.346 70.2655C259.761 71.1207 258.654 71.5853 257.175 71.5853C255.696 71.5853 254.568 71.1102 253.982 70.2655C253.567 69.6531 253.376 68.9985 253.376 67.9533V63.4132H253.387Z" fill="#222222"/>
  <path d="M265.007 68.534C265.007 69.0935 265.081 69.5475 265.283 69.8537C265.517 70.255 265.922 70.4556 266.581 70.4556C267.071 70.4556 267.55 70.3289 268.071 69.9488C268.199 69.8537 268.295 69.8748 268.348 69.9699L268.678 70.6773C268.731 70.7723 268.699 70.8357 268.603 70.9096C267.965 71.3636 267.124 71.5958 266.252 71.5958C265.262 71.5958 264.634 71.2897 264.23 70.804C263.815 70.2761 263.666 69.5159 263.666 68.7029V64.2895H262.697C262.602 64.2895 262.517 64.2156 262.517 64.1312V63.4238C262.517 63.3287 262.612 63.2443 262.697 63.2443H263.666V61.6711C263.666 61.5761 263.762 61.4916 263.847 61.4916H264.836C264.932 61.4916 265.017 61.5866 265.017 61.6711V63.2443H267.88C267.975 63.2443 268.061 63.3393 268.061 63.4238V64.1312C268.061 64.2262 267.965 64.2895 267.88 64.2895H265.017V68.5445L265.007 68.534Z" fill="#222222"/>
  <path d="M269.912 59.3483C269.912 58.9154 270.274 58.567 270.71 58.567C271.146 58.567 271.508 58.9154 271.508 59.3483C271.508 59.7812 271.146 60.1401 270.71 60.1401C270.274 60.1401 269.912 59.7917 269.912 59.3483ZM270.242 63.2337H271.232C271.327 63.2337 271.391 63.3287 271.391 63.4132V71.2474C271.391 71.3425 271.317 71.4058 271.232 71.4058H270.242C270.146 71.4058 270.061 71.3319 270.061 71.2474V63.4132C270.061 63.3182 270.157 63.2337 270.242 63.2337Z" fill="#222222"/>
  <path d="M275.265 64.6274C275.829 63.561 276.925 63.0859 278.148 63.0859C279.138 63.0859 279.957 63.3182 280.532 63.825C281.17 64.3846 281.521 65.2926 281.521 66.5596V71.2474C281.521 71.3425 281.426 71.4058 281.341 71.4058H280.372C280.276 71.4058 280.191 71.3319 280.191 71.2474V66.8552C280.191 65.9472 280.01 65.2292 279.521 64.7752C279.159 64.4268 278.648 64.2473 277.904 64.2473C276.956 64.2473 276.212 64.6591 275.754 65.4932C275.403 66.1478 275.275 66.9185 275.275 67.6471V71.2474C275.275 71.3425 275.201 71.4058 275.116 71.4058H274.115C274.02 71.4058 273.934 71.3319 273.934 71.2474V63.4132C273.934 63.3182 274.03 63.2337 274.115 63.2337H275.041C275.137 63.2337 275.222 63.3287 275.222 63.4132V64.6274H275.275H275.265Z" fill="#222222"/>
  <path d="M289.087 73.8342C289.502 73.3591 289.704 72.6939 289.704 71.807V70.7617C288.96 71.3741 288.172 71.5747 287.246 71.5747C286.076 71.5747 285.203 71.1418 284.586 70.4556C283.873 69.6637 283.511 68.534 283.511 67.3303C283.511 66.1267 283.841 65.0286 284.554 64.2156C285.171 63.5294 286.065 63.0965 287.236 63.0965C288.406 63.0965 289.172 63.5294 289.694 63.9517H289.747V63.4238C289.747 63.3287 289.822 63.2443 289.907 63.2443H290.854C290.96 63.2443 291.035 63.3393 291.035 63.4238V71.6698C291.035 72.9684 290.705 73.982 289.992 74.6683C289.353 75.3018 288.385 75.608 287.151 75.608C285.916 75.608 284.873 75.2279 284.139 74.7422C284.043 74.6894 284.012 74.6155 284.065 74.5205L284.426 73.792C284.48 73.6969 284.575 73.6653 284.703 73.7603C285.374 74.2143 286.182 74.5416 287.161 74.5416C288.034 74.5416 288.672 74.2882 289.077 73.8342H289.087ZM289.704 69.6003V65.1131C289.226 64.733 288.534 64.1734 287.385 64.1734C286.587 64.1734 285.959 64.5007 285.565 65.0075C285.076 65.6093 284.852 66.4329 284.852 67.3092C284.852 68.2278 285.076 69.083 285.544 69.6637C285.959 70.1705 286.544 70.4767 287.363 70.4767C288.332 70.4767 289.077 70.1283 289.694 69.6109L289.704 69.6003Z" fill="#222222"/>
  <path d="M302.708 64.4057H306.315C306.411 64.4057 306.475 64.4796 306.475 64.5641V65.4721C306.475 65.5671 306.4 65.6516 306.315 65.6516H302.708V69.2097C302.708 69.3047 302.633 69.3892 302.548 69.3892H301.633C301.537 69.3892 301.452 69.2942 301.452 69.2097V65.6516H297.866C297.77 65.6516 297.707 65.5565 297.707 65.4721V64.5641C297.707 64.469 297.781 64.4057 297.866 64.4057H301.452V60.8476C301.452 60.7525 301.548 60.6681 301.633 60.6681H302.548C302.644 60.6681 302.708 60.7631 302.708 60.8476V64.4057Z" fill="#222222"/>
  <path d="M314.456 59.0949C314.551 59.0949 314.636 59.1899 314.636 59.2744V71.2474C314.636 71.3425 314.541 71.4058 314.456 71.4058H313.349C313.253 71.4058 313.189 71.3319 313.189 71.2474V59.2744C313.189 59.1793 313.264 59.0949 313.349 59.0949H314.456Z" fill="#222222"/>
  <path d="M318.712 64.6274C319.276 63.561 320.372 63.0859 321.596 63.0859C322.585 63.0859 323.405 63.3182 323.979 63.825C324.618 64.3846 324.969 65.2926 324.969 66.5596V71.2474C324.969 71.3425 324.873 71.4058 324.788 71.4058H323.82C323.724 71.4058 323.639 71.3319 323.639 71.2474V66.8552C323.639 65.9472 323.458 65.2292 322.968 64.7752C322.607 64.4268 322.096 64.2473 321.351 64.2473C320.404 64.2473 319.659 64.6591 319.202 65.4932C318.85 66.1478 318.723 66.9185 318.723 67.6471V71.2474C318.723 71.3425 318.648 71.4058 318.563 71.4058H317.563C317.467 71.4058 317.382 71.3319 317.382 71.2474V63.4132C317.382 63.3182 317.478 63.2337 317.563 63.2337H318.489C318.584 63.2337 318.669 63.3287 318.669 63.4132V64.6274H318.723H318.712Z" fill="#222222"/>
  <path d="M329.396 60.4991C329.108 60.8475 329.013 61.386 329.013 62.0723V63.2337H331.471C331.566 63.2337 331.63 63.3287 331.63 63.4132V64.1206C331.63 64.2156 331.556 64.279 331.471 64.279H329.013V71.2474C329.013 71.3425 328.938 71.4058 328.832 71.4058H327.842C327.746 71.4058 327.682 71.3319 327.682 71.2474V64.279H326.629C326.533 64.279 326.448 64.2051 326.448 64.1206V63.4132C326.448 63.3182 326.544 63.2337 326.629 63.2337H327.682V61.9456C327.682 61.0059 327.863 60.1402 328.417 59.5806C328.821 59.1794 329.406 58.9471 330.204 58.9471C331.205 58.9471 332.077 59.2744 332.652 59.7073C332.748 59.7601 332.758 59.8656 332.726 59.9395L332.396 60.6047C332.343 60.7103 332.216 60.7314 332.109 60.6575C331.598 60.2563 331.066 60.0557 330.492 60.0557C330.002 60.0557 329.651 60.2035 329.417 60.4886L329.396 60.4991Z" fill="#222222"/>
  <path d="M333.78 64.3212C334.567 63.5399 335.674 63.0965 336.919 63.0965C338.164 63.0965 339.271 63.5505 340.058 64.3212C340.824 65.0603 341.282 66.1161 341.282 67.3409C341.282 68.5656 340.824 69.6215 340.058 70.3605C339.271 71.1418 338.164 71.5853 336.919 71.5853C335.674 71.5853 334.567 71.1313 333.78 70.3605C333.014 69.6215 332.556 68.5656 332.556 67.3409C332.556 66.1161 333.014 65.0603 333.78 64.3212ZM334.695 69.5475C335.227 70.1494 336.004 70.5083 336.919 70.5083C337.834 70.5083 338.611 70.1494 339.143 69.5475C339.675 68.988 339.962 68.2066 339.962 67.3409C339.962 66.4751 339.675 65.6938 339.143 65.1342C338.611 64.5324 337.834 64.1734 336.919 64.1734C336.004 64.1734 335.227 64.5324 334.695 65.1342C334.163 65.6938 333.876 66.4751 333.876 67.3409C333.876 68.2066 334.163 68.988 334.695 69.5475Z" fill="#222222"/>
  <path d="M345.283 65.0286C344.825 65.641 344.666 66.6229 344.666 67.4148V71.2474C344.666 71.3425 344.591 71.4058 344.506 71.4058H343.506C343.41 71.4058 343.325 71.3319 343.325 71.2474V63.4132C343.325 63.3182 343.421 63.2337 343.506 63.2337H344.431C344.527 63.2337 344.612 63.3287 344.612 63.4132V64.4057H344.666C345.081 63.5399 345.889 63.0859 346.985 63.0859C347.783 63.0859 348.422 63.3182 348.954 63.7405C349.05 63.8144 349.06 63.8883 349.007 63.9728L348.603 64.7858C348.55 64.8808 348.443 64.8914 348.326 64.8175C347.89 64.5113 347.4 64.2895 346.762 64.2895C346.155 64.2895 345.655 64.5218 345.283 65.0181V65.0286Z" fill="#222222"/>
  <path d="M351.731 64.2156C352.274 63.4871 353.093 63.0965 354.136 63.0965C354.828 63.0965 355.488 63.2548 355.998 63.6349C356.403 63.92 356.69 64.3001 356.871 64.7963C357.073 64.3634 357.403 63.8883 357.967 63.5293C358.456 63.2232 359.063 63.0965 359.659 63.0965C360.521 63.0965 361.319 63.3182 361.904 63.8883C362.436 64.3951 362.777 65.187 362.777 66.3801V71.2474C362.777 71.3425 362.702 71.4058 362.617 71.4058H361.617C361.521 71.4058 361.436 71.3319 361.436 71.2474V66.7074C361.436 65.8733 361.255 65.2081 360.893 64.8069C360.542 64.4268 360.031 64.2473 359.404 64.2473C358.733 64.2473 358.127 64.5007 357.743 65.1131C357.392 65.6938 357.265 66.4329 357.265 67.3514V71.2369C357.265 71.3319 357.19 71.3952 357.105 71.3952H356.105C356.009 71.3952 355.924 71.3213 355.924 71.2369V66.6968C355.924 65.8627 355.743 65.1975 355.381 64.7963C355.03 64.4162 354.519 64.2367 353.891 64.2367C353.221 64.2367 352.615 64.4902 352.231 65.1025C351.944 65.5882 351.753 66.3167 351.753 67.1614V71.2263C351.753 71.3213 351.678 71.3847 351.593 71.3847H350.593C350.497 71.3847 350.412 71.3108 350.412 71.2263V63.3921C350.412 63.2971 350.508 63.2126 350.593 63.2126H351.518C351.614 63.2126 351.699 63.3076 351.699 63.3921V64.184H351.753L351.731 64.2156Z" fill="#222222"/>
  <path d="M365.629 64.9019C365.501 64.9758 365.405 64.9336 365.373 64.8491L365.065 64.184C365.011 64.0784 365.033 64.0256 365.16 63.9517C366.001 63.3921 367.161 63.0965 368.299 63.0965C369.087 63.0965 370.045 63.2443 370.704 63.9833C371.119 64.4585 371.375 65.1448 371.375 66.19V71.258C371.375 71.353 371.3 71.4164 371.215 71.4164H370.353C370.257 71.4164 370.194 71.3424 370.194 71.258V70.9729H370.119C369.278 71.4586 368.555 71.6064 367.64 71.6064C366.895 71.6064 366.161 71.4269 365.597 71.0257C365.054 70.6245 364.671 70.0332 364.671 69.1991C364.671 68.0799 365.362 67.4465 366.363 67.0664C367.469 66.6546 368.949 66.5385 370.045 66.4857V66.2111C370.045 65.4826 369.917 65.0497 369.63 64.7119C369.268 64.3001 368.682 64.1734 368.14 64.1734C367.097 64.1734 366.331 64.5218 365.639 64.9125L365.629 64.9019ZM370.045 70.0121V67.457C369.183 67.4887 368.172 67.552 367.331 67.7843C366.544 67.9849 365.948 68.3861 365.948 69.1041C365.948 70.1177 367.001 70.5295 368.023 70.5295C368.714 70.5295 369.406 70.3289 370.045 70.0016V70.0121Z" fill="#222222"/>
  <path d="M375.28 68.534C375.28 69.0935 375.354 69.5475 375.557 69.8537C375.791 70.255 376.195 70.4556 376.855 70.4556C377.344 70.4556 377.823 70.3289 378.345 69.9488C378.472 69.8537 378.568 69.8748 378.621 69.9699L378.951 70.6773C379.004 70.7723 378.972 70.8357 378.877 70.9096C378.238 71.3636 377.398 71.5958 376.525 71.5958C375.535 71.5958 374.908 71.2897 374.503 70.804C374.088 70.2761 373.939 69.5159 373.939 68.7029V64.2895H372.971C372.875 64.2895 372.79 64.2156 372.79 64.1312V63.4238C372.79 63.3287 372.886 63.2443 372.971 63.2443H373.939V61.6711C373.939 61.5761 374.035 61.4916 374.12 61.4916H375.11C375.205 61.4916 375.291 61.5866 375.291 61.6711V63.2443H378.153C378.249 63.2443 378.334 63.3393 378.334 63.4238V64.1312C378.334 64.2262 378.238 64.2895 378.153 64.2895H375.291V68.5445L375.28 68.534Z" fill="#222222"/>
  <path d="M380.196 59.3483C380.196 58.9154 380.558 58.567 380.994 58.567C381.431 58.567 381.792 58.9154 381.792 59.3483C381.792 59.7812 381.431 60.1401 380.994 60.1401C380.558 60.1401 380.196 59.7917 380.196 59.3483ZM380.526 63.2337H381.516C381.611 63.2337 381.675 63.3287 381.675 63.4132V71.2474C381.675 71.3425 381.601 71.4058 381.516 71.4058H380.526C380.43 71.4058 380.345 71.3319 380.345 71.2474V63.4132C380.345 63.3182 380.441 63.2337 380.526 63.2337Z" fill="#222222"/>
  <path d="M384.899 64.3212C385.687 63.5399 386.794 63.0965 388.039 63.0965C389.284 63.0965 390.39 63.5505 391.178 64.3212C391.944 65.0603 392.401 66.1161 392.401 67.3409C392.401 68.5656 391.944 69.6215 391.178 70.3605C390.39 71.1418 389.284 71.5853 388.039 71.5853C386.794 71.5853 385.687 71.1313 384.899 70.3605C384.133 69.6215 383.676 68.5656 383.676 67.3409C383.676 66.1161 384.133 65.0603 384.899 64.3212ZM385.815 69.5475C386.347 70.1494 387.123 70.5083 388.039 70.5083C388.954 70.5083 389.731 70.1494 390.263 69.5475C390.795 68.988 391.082 68.2066 391.082 67.3409C391.082 66.4751 390.795 65.6938 390.263 65.1342C389.731 64.5324 388.954 64.1734 388.039 64.1734C387.123 64.1734 386.347 64.5324 385.815 65.1342C385.283 65.6938 384.995 66.4751 384.995 67.3409C384.995 68.2066 385.283 68.988 385.815 69.5475Z" fill="#222222"/>
  <path d="M395.785 64.6274C396.349 63.561 397.445 63.0859 398.669 63.0859C399.659 63.0859 400.478 63.3182 401.053 63.825C401.691 64.3846 402.042 65.2926 402.042 66.5596V71.2474C402.042 71.3425 401.946 71.4058 401.861 71.4058H400.893C400.797 71.4058 400.712 71.3319 400.712 71.2474V66.8552C400.712 65.9472 400.531 65.2292 400.042 64.7752C399.68 64.4268 399.169 64.2473 398.424 64.2473C397.477 64.2473 396.732 64.6591 396.275 65.4932C395.924 66.1478 395.796 66.9185 395.796 67.6471V71.2474C395.796 71.3425 395.721 71.4058 395.636 71.4058H394.636C394.54 71.4058 394.455 71.3319 394.455 71.2474V63.4132C394.455 63.3182 394.551 63.2337 394.636 63.2337H395.562C395.658 63.2337 395.743 63.3287 395.743 63.4132V64.6274H395.796H395.785Z" fill="#222222"/>
  <path d="M408.693 70.4133C408.586 70.3605 408.544 70.2655 408.597 70.1599L409.055 69.2414C409.087 69.1463 409.161 69.1147 409.289 69.1886C410.055 69.6742 411.183 70.3605 412.843 70.3605C413.715 70.3605 414.407 70.1388 414.886 69.8009C415.429 69.3892 415.705 68.7662 415.705 68.0694C415.705 67.1297 415.035 66.5701 414.12 66.19C413.045 65.7149 411.821 65.5565 410.534 64.923C409.459 64.3951 408.672 63.6244 408.672 62.2412C408.672 61.2593 409.033 60.4463 409.746 59.8762C410.491 59.2744 411.609 58.9365 413.077 58.9365C414.546 58.9365 415.844 59.3377 416.684 59.8023C416.791 59.8762 416.812 59.9501 416.759 60.0557L416.323 60.9637C416.269 61.0693 416.174 61.1115 416.067 61.0376C415.152 60.5097 414.045 60.1824 413.003 60.1824C411.96 60.1824 411.236 60.4147 410.779 60.837C410.395 61.1854 410.193 61.6289 410.193 62.1885C410.193 63.0965 410.906 63.6033 412.002 63.9939C413.237 64.4479 414.514 64.6063 415.663 65.282C416.525 65.7677 417.28 66.6018 417.28 67.9427C417.28 69.1358 416.791 70.0543 415.971 70.6878C415.205 71.2896 414.109 71.5958 412.854 71.5958C410.917 71.5958 409.555 70.9835 408.682 70.4239L408.693 70.4133Z" fill="#222222"/>
  <path d="M425.325 69.9804C425.453 69.8854 425.559 69.9276 425.602 70.0121L425.963 70.6773C426.017 70.7723 425.963 70.8357 425.868 70.9096C425.208 71.3425 424.261 71.5747 423.292 71.5747C421.909 71.5747 420.76 71.1418 419.994 70.35C419.26 69.6215 418.866 68.5762 418.866 67.3303C418.866 66.2428 419.217 65.3242 419.792 64.638C420.632 63.6244 421.909 63.0859 423.314 63.0859C424.282 63.0859 425.176 63.3604 425.825 63.8144C425.921 63.8883 425.974 63.9622 425.921 64.0467L425.538 64.733C425.485 64.8386 425.389 64.8597 425.261 64.7858C424.623 64.3846 424.005 64.2262 423.314 64.2262C422.367 64.2262 421.505 64.5852 420.941 65.2609C420.483 65.7888 420.207 66.4856 420.207 67.3409C420.207 68.2806 420.515 69.0619 421.047 69.6215C421.579 70.181 422.356 70.4872 423.324 70.4872C424.016 70.4872 424.676 70.3605 425.314 69.9804H425.325Z" fill="#222222"/>
  <path d="M427.602 59.3483C427.602 58.9154 427.964 58.567 428.4 58.567C428.836 58.567 429.198 58.9154 429.198 59.3483C429.198 59.7812 428.836 60.1401 428.4 60.1401C427.964 60.1401 427.602 59.7917 427.602 59.3483ZM427.932 63.2337H428.922C429.017 63.2337 429.081 63.3287 429.081 63.4132V71.2474C429.081 71.3425 429.007 71.4058 428.922 71.4058H427.932C427.836 71.4058 427.751 71.3319 427.751 71.2474V63.4132C427.751 63.3182 427.847 63.2337 427.932 63.2337Z" fill="#222222"/>
  <path d="M438.03 69.7798C438.179 69.6848 438.264 69.7482 438.307 69.8115L438.658 70.4767C438.711 70.5717 438.679 70.635 438.584 70.709C437.913 71.163 436.721 71.5747 435.445 71.5747C434.082 71.5747 432.944 71.0996 432.199 70.255C431.507 69.4948 431.124 68.4495 431.124 67.2142C431.124 66.0528 431.529 65.0075 432.22 64.2684C432.912 63.5293 433.912 63.0753 435.232 63.0753C436.551 63.0753 437.583 63.6033 438.222 64.374C438.828 65.1342 439.148 66.2006 439.084 67.4887C439.084 67.6154 438.988 67.6893 438.86 67.6893H432.518C432.571 68.3756 432.806 69.0091 433.231 69.4948C433.763 70.1282 434.561 70.4872 435.562 70.4872C436.562 70.4872 437.371 70.1599 438.041 69.7587L438.03 69.7798ZM437.796 66.7391C437.764 66 437.52 65.3876 437.126 64.9336C436.711 64.4796 436.051 64.1523 435.232 64.1523C434.317 64.1523 433.625 64.4796 433.167 65.0075C432.784 65.4615 432.55 66.095 432.508 66.7391H437.796Z" fill="#222222"/>
  <path d="M442.457 64.6274C443.021 63.561 444.117 63.0859 445.341 63.0859C446.33 63.0859 447.15 63.3182 447.724 63.825C448.363 64.3846 448.714 65.2926 448.714 66.5596V71.2474C448.714 71.3425 448.618 71.4058 448.533 71.4058H447.565C447.469 71.4058 447.384 71.3319 447.384 71.2474V66.8552C447.384 65.9472 447.203 65.2292 446.713 64.7752C446.352 64.4268 445.841 64.2473 445.096 64.2473C444.149 64.2473 443.404 64.6591 442.947 65.4932C442.595 66.1478 442.468 66.9185 442.468 67.6471V71.2474C442.468 71.3425 442.393 71.4058 442.308 71.4058H441.308C441.212 71.4058 441.127 71.3319 441.127 71.2474V63.4132C441.127 63.3182 441.223 63.2337 441.308 63.2337H442.234C442.329 63.2337 442.414 63.3287 442.414 63.4132V64.6274H442.468H442.457Z" fill="#222222"/>
  <path d="M457.12 69.9804C457.248 69.8854 457.355 69.9276 457.397 70.0121L457.759 70.6773C457.812 70.7723 457.759 70.8357 457.663 70.9096C457.003 71.3425 456.056 71.5747 455.088 71.5747C453.705 71.5747 452.555 71.1418 451.789 70.35C451.055 69.6215 450.661 68.5762 450.661 67.3303C450.661 66.2428 451.012 65.3242 451.587 64.638C452.428 63.6244 453.705 63.0859 455.109 63.0859C456.078 63.0859 456.971 63.3604 457.621 63.8144C457.716 63.8883 457.77 63.9622 457.716 64.0467L457.333 64.733C457.28 64.8386 457.184 64.8597 457.057 64.7858C456.418 64.3846 455.801 64.2262 455.109 64.2262C454.162 64.2262 453.3 64.5852 452.736 65.2609C452.279 65.7888 452.002 66.4856 452.002 67.3409C452.002 68.2806 452.311 69.0619 452.843 69.6215C453.375 70.181 454.152 70.4872 455.12 70.4872C455.812 70.4872 456.471 70.3605 457.11 69.9804H457.12Z" fill="#222222"/>
  <path d="M465.718 69.7798C465.867 69.6848 465.953 69.7482 465.995 69.8115L466.346 70.4767C466.399 70.5717 466.367 70.635 466.272 70.709C465.601 71.163 464.41 71.5747 463.133 71.5747C461.771 71.5747 460.632 71.0996 459.887 70.255C459.195 69.4948 458.812 68.4495 458.812 67.2142C458.812 66.0528 459.217 65.0075 459.908 64.2684C460.6 63.5293 461.6 63.0753 462.92 63.0753C464.239 63.0753 465.271 63.6033 465.91 64.374C466.516 65.1342 466.836 66.2006 466.772 67.4887C466.772 67.6154 466.676 67.6893 466.548 67.6893H460.206C460.26 68.3756 460.494 69.0091 460.919 69.4948C461.451 70.1282 462.249 70.4872 463.25 70.4872C464.25 70.4872 465.059 70.1599 465.729 69.7587L465.718 69.7798ZM465.484 66.7391C465.452 66 465.208 65.3876 464.814 64.9336C464.399 64.4796 463.739 64.1523 462.92 64.1523C462.005 64.1523 461.313 64.4796 460.855 65.0075C460.472 65.4615 460.238 66.095 460.196 66.7391H465.484Z" fill="#222222"/>
  <path d="M6.20374 40.2903C7.89567 40.2903 8.90657 39.2239 9.02363 37.334C9.02363 36.9961 9.02363 36.5421 8.95978 36.0564V35.9297H7.54452L7.67221 36.2042C7.73606 36.4154 7.7999 36.8694 7.7999 37.2706C7.73606 38.2103 7.00182 38.8227 5.99092 38.7276C4.91617 38.6643 4.29899 37.9991 4.29899 37.0489C4.29899 36.711 4.36284 36.3837 4.63951 36.0458L4.85233 35.7713L3.50091 35.5602L3.43707 35.6869C3.22424 36.0775 3.1604 36.5738 3.09655 36.9644C2.96886 38.9177 4.04361 40.1952 6.0122 40.2586C6.04413 40.2903 6.10797 40.2903 6.1931 40.2903H6.20374Z" fill="#B31B1B"/>
  <path d="M6.44849 33.7441C6.84221 33.8708 7.18272 33.8708 7.52324 33.8708C8.81081 33.8708 9.7685 33.1423 10.1622 31.8648C10.375 31.0729 10.2899 30.4077 9.9494 29.732C9.55568 29.0668 8.87465 28.6023 7.9808 28.3278C7.64029 28.2011 7.24657 28.2011 6.9699 28.2011C5.68233 28.2011 4.72463 28.9296 4.33092 30.2071C3.84143 31.8542 4.63951 33.1951 6.44849 33.7441ZM5.52272 30.5767C5.73554 29.8482 6.3208 29.6898 6.81028 29.6898C7.02311 29.6898 7.26785 29.7531 7.54452 29.8165C8.1617 30.0276 8.61927 30.2705 8.83209 30.7034C8.95978 30.9779 9.04491 31.2524 8.89593 31.5903C8.68311 32.3188 8.09785 32.4772 7.60836 32.4772C7.3317 32.4772 7.1508 32.4138 6.87413 32.3505C6.04413 32.0759 5.24605 31.4636 5.52272 30.5872V30.5767Z" fill="#B31B1B"/>
  <path d="M12.2798 26.2267L10.3112 25.1603L10.375 25.0336C10.5879 24.6957 10.7156 24.6957 10.9922 24.7591L12.9608 25.0336L13.6951 23.6293L11.1199 23.3548H10.6624C10.6624 22.8058 10.3857 22.2885 9.86427 22.0139C9.5876 21.8872 9.31094 21.8028 9.06619 21.8028C8.11914 21.8028 7.65093 22.7425 7.16144 23.5977L6.45913 24.8752L11.5881 27.6204L12.2904 26.2161L12.2798 26.2267ZM9.23645 24.4212L9.1726 24.5479L8.22555 24.0939L8.28939 23.9672C8.50221 23.5766 8.74696 23.1753 9.18324 23.3548C9.31094 23.4182 9.39606 23.4815 9.45991 23.6293C9.49183 23.8722 9.36414 24.21 9.24709 24.4212H9.23645Z" fill="#B31B1B"/>
  <path d="M15.4402 21.1376L12.8012 19.0048L16.5788 19.8601L17.5897 18.5825L13.1417 14.8977L12.184 15.9852L14.8869 18.1813L11.1093 17.3261L10.0345 18.5825L14.5463 22.2673L15.4402 21.1376Z" fill="#B31B1B"/>
  <path d="M21.9738 14.8977L21.1757 13.9791L19.5476 15.225L18.8134 14.3803L20.2925 13.1556L19.4944 12.2159L18.0153 13.4301L17.462 12.7016L19.0901 11.424L18.2601 10.421L15.504 12.6382L19.1539 17.1149L21.9738 14.8977Z" fill="#B31B1B"/>
  <path d="M26.7942 12.0258L26.1877 10.9595L24.3361 11.973L22.1334 8.01371L20.8459 8.74223L23.6657 13.768L26.7942 12.0258Z" fill="#B31B1B"/>
  <path d="M31.7104 10.1465L31.2422 9.01674L29.3481 9.68191L27.8051 5.44805L26.3686 5.93373L28.3265 11.3607L31.7104 10.1465Z" fill="#B31B1B"/>
  <path d="M37.6055 9.19623H37.9461C38.7441 9.13288 39.3613 8.85837 39.6912 8.46771C40.0211 8.07706 40.1488 7.46468 40.0849 6.78895L39.8082 3.16747L38.3398 3.23082L38.6164 6.52499C38.6803 7.65473 38.2227 7.86589 37.8184 7.92924H37.6907C37.3501 7.92924 36.8926 7.80254 36.7436 6.65169L36.4669 3.35752L34.9985 3.48422L35.2751 7.1057C35.488 8.47827 36.2541 9.20679 37.6055 9.20679V9.19623Z" fill="#B31B1B"/>
  <path d="M44.2668 5.78592L45.4906 9.3546L47.1825 9.62912L47.9167 3.83264L46.5015 3.65315L46.0439 7.06346L44.8095 3.44199L43.1921 3.2625L42.394 8.95339L43.7986 9.13288L44.2668 5.78592Z" fill="#B31B1B"/>
  <path d="M52.3009 5.12075L50.8962 4.65619L49.1405 10.1465L50.5557 10.6322L52.3009 5.12075Z" fill="#B31B1B"/>
  <path d="M59.6113 8.34101L58.3237 7.67584L55.4932 10.5371L56.0784 6.60946L54.6632 5.84927L53.8119 11.973L55.2804 12.6382L59.6113 8.34101Z" fill="#B31B1B"/>
  <path d="M61.0797 16.6609L61.814 15.6579L60.2178 14.3803L60.8988 13.4934L62.3673 14.6443L63.1654 13.6413L61.6969 12.4904L62.2503 11.7513L63.8464 13.0394L64.6764 12.0258L61.814 9.87196L58.2599 14.4331L61.0797 16.6609Z" fill="#B31B1B"/>
  <path d="M63.5059 19.0682L65.1978 17.6112L65.2617 17.7378C65.4745 18.0124 65.4745 18.0757 65.3255 18.403L64.3785 20.1346L65.4532 21.3488L66.5918 19.0682C66.6557 19.0048 66.7195 18.7937 66.7195 18.6142C67.1771 18.8253 67.7943 18.7409 68.2837 18.3397C69.5713 17.2733 68.5604 16.1119 67.8262 15.2672L66.8791 14.2008L62.495 18.0124L63.5378 19.0787L63.5059 19.0682ZM66.9749 16.0485L67.0387 16.1752C67.2516 16.4497 67.4325 16.7243 67.4325 16.9037C67.4325 17.0304 67.3686 17.1149 67.2196 17.1783C67.1558 17.305 67.0068 17.305 66.943 17.305C66.6663 17.305 66.3896 17.0304 66.2726 16.851L66.2087 16.7243L66.9749 16.0591V16.0485Z" fill="#B31B1B"/>
  <path d="M68.9116 23.6927C68.6349 23.9039 68.2412 23.566 68.1135 23.302C67.9007 22.9642 67.8368 22.6369 67.8368 22.1723V21.8344L66.4854 22.4468L66.5492 22.7213C66.6769 23.1753 66.7621 23.4499 67.0068 23.9355C67.4644 24.7274 68.0816 25.1497 68.7519 25.1497C69.0925 25.1497 69.3691 25.0864 69.699 24.8752C70.7099 24.2628 70.5929 23.3232 70.4332 22.5946C70.3694 22.1406 70.3055 21.8028 70.4971 21.655C70.6248 21.5916 70.7099 21.5916 70.7737 21.5916C71.0504 21.5916 71.2313 21.8661 71.3271 21.9295C71.5399 22.204 71.6038 22.5419 71.6676 22.8692L71.7314 23.1437L72.9552 22.5946V22.4679C72.8913 22.0773 72.6785 21.6761 72.4018 21.1904C71.7847 20.124 70.7099 19.7861 69.7628 20.3985C68.7519 21.0109 68.869 21.9506 69.0286 22.6263C69.1244 23.207 69.1776 23.5449 68.9009 23.6927H68.9116Z" fill="#B31B1B"/>
  <path d="M74.4367 25.4064L69.0668 27.5796L69.6215 28.9287L74.9913 26.7555L74.4367 25.4064Z" fill="#B31B1B"/>
  <path d="M74.9876 30.8512L70.5928 31.9176L70.9334 33.3218L75.4133 32.2554L75.7538 33.7441L76.9562 33.4696L75.8815 29.0563L74.6471 29.3941L74.9876 30.8512Z" fill="#B31B1B"/>
  <path d="M71.5505 37.5557L71.6144 39.0444L73.9129 38.8966L77.5628 40.7759L77.4776 39.1711L75.3281 38.1575L77.3499 36.8799L77.2222 35.1484L73.849 37.4923L71.5505 37.5557Z" fill="#B31B1B"/>
  <path d="M7.3317 51.0702L8.56606 50.7429L8.07657 49.0008L8.95978 48.7263L9.48119 50.6162L10.7156 50.2256L9.75786 46.9947L4.1713 48.6102L4.57566 50.0038L6.87413 49.3387L7.3317 51.0702Z" fill="#B31B1B"/>
  <path d="M12.5245 55.9165C12.7374 55.2513 12.6522 54.5122 12.3117 53.7837C11.7584 52.7173 10.9603 52.1683 9.88555 52.1683C9.42799 52.1683 8.87465 52.295 8.32132 52.5589C7.42747 52.9496 6.90605 53.562 6.62939 54.2905C6.41656 54.9557 6.50169 55.6947 6.84221 56.4233C7.39554 57.4263 8.19362 58.0387 9.26837 58.0387C9.72594 58.0387 10.2793 57.912 10.8326 57.648C11.7265 57.194 12.333 56.645 12.5245 55.9165ZM10.2473 56.2543C9.90684 56.4655 9.51312 56.5288 9.1726 56.5288C8.61927 56.5288 8.27875 56.3177 8.09785 55.8637C7.97016 55.5258 7.88503 55.2513 8.03401 54.9768C8.1617 54.5861 8.58734 54.1849 9.10876 53.9104C9.44927 53.7837 9.77914 53.6359 10.1197 53.6359C10.673 53.6359 11.0135 53.847 11.1944 54.301C11.3221 54.6389 11.4072 54.9134 11.2583 55.1879C11.1093 55.5786 10.7688 55.9798 10.2473 56.2543Z" fill="#B31B1B"/>
  <path d="M16.5788 60.3932L13.9398 62.4626C13.2694 63.0116 12.7161 63.0749 12.3117 62.5893C12.184 62.3781 12.0989 62.1986 12.0989 61.9769C12.1627 61.7024 12.3756 61.3645 12.7693 61.0372L15.4083 58.9678L14.4612 57.8381L11.5456 60.1186C10.9284 60.5726 10.5985 61.1217 10.5985 61.7341C10.5985 62.2831 10.8113 62.8004 11.2689 63.4128C11.8222 64.1413 12.4075 64.4792 13.0779 64.4792C13.5354 64.4792 14.0249 64.268 14.4931 63.8668L17.4088 61.5229L16.5788 60.3932Z" fill="#B31B1B"/>
  <path d="M21.5162 65.081L19.3667 67.7628L20.1648 64.0146L18.8773 62.9482L15.1635 67.4249L16.334 68.3752L18.4729 65.6934L17.6748 69.4416L18.9411 70.5079L22.6548 66.0313L21.5162 65.081Z" fill="#B31B1B"/>
  <path d="M25.8472 67.8262L24.3787 67.0976L21.7397 72.2395L23.2082 72.968C23.9424 73.3059 24.5596 73.517 25.1768 73.517C26.1877 73.517 26.9858 72.968 27.5391 71.9016C28.401 70.1701 27.8158 68.8292 25.8472 67.8156V67.8262ZM26.1238 71.2682C25.8472 71.8805 25.3257 72.2078 24.7086 72.2078C24.4319 72.2078 24.251 72.1445 23.9743 71.9967L23.6338 71.7855L25.1023 68.8292L25.4428 69.0404C25.8365 69.2515 26.1132 69.5894 26.2409 69.9272C26.3686 70.3813 26.3047 70.7825 26.1132 71.2682H26.1238Z" fill="#B31B1B"/>
  <path d="M29.0714 75.4703L32.5404 76.41L32.8703 75.1958L30.8485 74.6785L31.0932 73.6121L32.998 74.0661L33.3385 72.8519L31.4337 72.3979L31.6465 71.4476L33.7322 71.9967L34.0089 70.7825L30.5718 69.9272L29.0714 75.4703Z" fill="#B31B1B"/>
  <path d="M37.6587 71.2682L35.9668 71.2048L35.6263 76.959L37.3182 77.0224H37.7119C39.6805 77.0224 40.6914 76.0827 40.8085 74.2772C40.8723 73.3904 40.6808 72.6618 40.1913 72.1445C39.6699 71.6588 38.8399 71.3209 37.6481 71.2576L37.6587 71.2682ZM37.6055 75.8082H37.2118L37.4246 72.514H37.8184C38.6164 72.5774 39.3826 73.1792 39.2868 74.2456C39.1911 75.3436 38.393 75.7976 37.5949 75.7976L37.6055 75.8082Z" fill="#B31B1B"/>
  <path d="M45.9481 70.7825L44.9372 76.8746L46.5015 76.5367L46.7143 75.2592L48.619 74.8685L49.3533 75.9982L50.9814 75.6604L47.5443 70.5185L45.9481 70.793V70.7825ZM46.9058 74.0027L47.1187 72.4507L47.9167 73.7282L46.9058 74.0027Z" fill="#B31B1B"/>
  <path d="M51.5028 73.7916L52.0242 75.1958L53.3756 74.6785L52.918 73.3376L51.5028 73.7916Z" fill="#B31B1B"/>
  <path d="M54.3333 67.974L52.8648 68.7658L55.6315 73.8549L57.1 73.063C59.0686 71.9967 59.5261 70.6558 58.6642 68.977C57.7704 67.2455 56.3019 66.9076 54.3333 67.974ZM56.6956 71.8489L56.3551 72.06L54.7909 69.1671L55.1314 68.9559C55.3442 68.8292 55.5889 68.7447 55.8656 68.7447C56.4828 68.7447 56.9404 69.0826 57.2809 69.6316C57.8661 70.603 57.3766 71.4582 56.6956 71.8594V71.8489Z" fill="#B31B1B"/>
  <path d="M59.7922 69.7689L60.6222 70.9936L61.814 70.1067L61.0159 68.9242L59.7922 69.7689Z" fill="#B31B1B"/>
  <path d="M62.0906 62.3464L61.814 64.627L63.1122 64.8065L63.2612 63.8985L66.0278 66.6331L67.1026 65.6301L62.9845 61.4595L62.0906 62.3464Z" fill="#B31B1B"/>
  <path d="M70.0182 59.3268C69.5607 58.9889 69.0073 58.9361 68.3901 59.1156C68.3901 58.5666 68.1135 58.0492 67.7198 57.7747C66.9855 57.2257 66.0278 57.5635 65.2936 58.5032C64.6232 59.4429 64.6764 60.3932 65.5064 60.9739C65.9001 61.2484 66.4535 61.3117 66.9217 61.185C66.8578 61.7974 67.0494 62.2514 67.5389 62.5893C67.8794 62.8638 68.2092 62.9271 68.5498 62.9271C69.1669 62.9271 69.6884 62.5893 70.2417 61.9241C70.6354 61.3751 70.8589 60.8577 70.795 60.3087C70.6993 60.0025 70.4226 59.6646 70.0289 59.3373L70.0182 59.3268ZM67.2196 59.728C67.0068 59.8547 66.8259 60.0025 66.6024 60.0025C66.5386 60.0025 66.3896 60.0025 66.3258 59.9392C66.0491 59.728 66.1981 59.3901 66.3258 59.2106C66.3896 59.0839 66.5386 58.9995 66.6663 58.9995C66.7301 58.9995 66.8791 59.0628 67.0068 59.1262C67.2196 59.274 67.3154 59.5485 67.2196 59.7385V59.728ZM69.2521 61.3328C69.0393 61.6074 68.6987 61.6707 68.454 61.4595C68.2412 61.2484 68.1135 61.0689 68.1773 60.6677C68.571 60.3932 68.9116 60.3298 69.1882 60.541C69.3159 60.6043 69.4011 60.7521 69.4011 60.8788C69.4011 61.0055 69.3372 61.2167 69.2521 61.3328Z" fill="#B31B1B"/>
  <path d="M72.6253 53.6887C71.6144 53.2347 70.6567 53.4775 70.1991 54.4172C70.0714 54.6917 69.9863 54.9662 70.0714 55.2091C69.7309 54.9345 69.4011 54.4805 69.6777 53.8682C69.8054 53.5936 70.0182 53.4142 70.2311 53.203L70.4439 53.0763L69.3691 52.3478L69.2414 52.4745C68.9648 52.749 68.6881 53.0869 68.5072 53.4775C68.2305 54.0899 68.1667 54.6072 68.3795 55.1563C68.72 56.096 69.6671 56.7717 70.4013 57.1095C71.0717 57.4474 71.625 57.5635 72.0932 57.5635C72.8275 57.5635 73.3808 57.2257 73.7852 56.4972C74.2427 55.3146 73.849 54.301 72.6147 53.6992L72.6253 53.6887ZM72.6253 55.8531C72.5615 56.0643 72.3486 56.1276 72.1677 56.1276C72.04 56.1276 71.8272 56.0643 71.7102 56.0009C71.4335 55.8742 71.2526 55.6631 71.1568 55.5469C71.093 55.4202 71.1568 55.3358 71.1568 55.2091C71.2207 54.9979 71.3697 54.9345 71.6144 54.9345C71.7421 54.9345 71.9549 54.9979 72.1677 55.0612C72.4444 55.1879 72.5615 55.3358 72.6253 55.5152C72.7211 55.6419 72.6253 55.7581 72.6253 55.8531Z" fill="#B31B1B"/>
  <path d="M74.7429 47.8183C73.6043 47.4804 72.6572 48.0295 72.3167 49.0958C72.3167 49.2225 72.2529 49.307 72.2529 49.3703L71.5825 49.1592L72.1997 47.1531L71.0611 46.8153L70.0502 50.1622L73.3063 51.1653V50.8907C73.3063 50.5529 73.3702 50.2784 73.434 49.9511C73.4979 49.6765 73.8277 49.0114 74.4449 49.1592C75.1153 49.3704 74.9983 50.0989 74.9025 50.2889C74.7748 50.6796 74.562 50.9541 74.3492 51.2286L74.1363 51.4398L75.4877 51.8938L75.5516 51.7671C75.7644 51.3764 75.9453 50.8802 76.1049 50.5529C76.3177 49.8877 76.3177 49.2753 76.0411 48.758C75.7644 48.3356 75.2749 47.9978 74.7535 47.8183H74.7429Z" fill="#B31B1B"/>
  <path d="M32.019 33.8075L31.7423 33.6597C30.0823 32.7728 27.3263 31.1574 27.3263 29.9432V23.5766H36.9032V30.0065C36.9032 31.0729 34.3813 32.5933 32.2956 33.6597L32.019 33.8075ZM28.4861 27.6837V29.9326C28.6138 30.3233 30.21 31.4847 32.019 32.456C33.8918 31.4847 35.5199 30.355 35.7327 29.9326V27.6837H28.4861ZM28.4861 26.5223H35.7327V24.7274H28.4861V26.5223Z" fill="#B31B1B"/>
  <path d="M40.2977 79.9787C18.0792 79.9787 0 62.0402 0 39.9841C0 17.9279 18.0792 0 40.2977 0C62.5163 0 80.5955 17.9385 80.5955 39.9841C80.5955 62.0297 62.5163 79.9681 40.2977 79.9681V79.9787ZM40.2977 1.16141C18.7283 1.16141 1.17052 18.5825 1.17052 39.9841C1.17052 61.3856 18.7283 78.8173 40.3084 78.8173C61.8885 78.8173 79.4462 61.3962 79.4462 39.9841C79.4462 18.572 61.8778 1.16141 40.2977 1.16141Z" fill="#B31B1B"/>
  <path d="M40.2977 69.1987C24.0595 69.1987 10.8645 56.1065 10.8645 39.9946C10.8645 23.8827 24.0595 10.7905 40.2977 10.7905C56.536 10.7905 69.7309 23.8827 69.7309 39.9946C69.7309 56.1065 56.536 69.1987 40.2977 69.1987ZM40.2977 11.9414C24.7086 11.9414 12.0244 24.5162 12.0244 39.9946C12.0244 55.473 24.6979 68.0479 40.2977 68.0479C55.8975 68.0479 68.571 55.473 68.571 39.9946C68.571 24.5162 55.8975 11.9414 40.2977 11.9414Z" fill="#B31B1B"/>
  <path d="M48.5233 33.8075L48.2466 33.6597C46.5547 32.7728 43.7348 31.1574 43.7348 29.9432V23.5766H53.3118V30.0065C53.3118 30.8617 51.7794 32.0759 48.7999 33.6597L48.5233 33.8075ZM44.9053 29.9115C45.0543 30.3338 46.6824 31.4952 48.5233 32.4666C50.3323 31.4952 51.9284 30.3655 52.1412 29.9432V29.1513L48.5233 26.8074L44.9053 29.1513V29.9115ZM48.5233 25.4031L52.1412 27.7471V24.7274H44.9266V27.7471L48.5126 25.4031H48.5233Z" fill="#B31B1B"/>
  <path d="M38.1872 43.1218L34.1371 43.305L34.1987 44.6445L38.2487 44.4613L38.1872 43.1218Z" fill="#B31B1B"/>
  <path d="M38.1887 46.8098L34.1386 46.9923L34.2 48.3318L38.25 48.1493L38.1887 46.8098Z" fill="#B31B1B"/>
  <path d="M38.1976 50.4908L34.1475 50.6733L34.2088 52.0128L38.2589 51.8304L38.1976 50.4908Z" fill="#B31B1B"/>
  <path d="M31.8062 43.9223H29.5609V45.7805H31.8062V43.9223Z" fill="#B31B1B"/>
  <path d="M31.7104 49.212H29.5609V51.0702H31.7104V49.212Z" fill="#B31B1B"/>
  <path d="M39.7444 55.0296C39.7444 55.0296 38.9463 54.4489 38.4568 54.5122C36.0307 54.9029 32.1041 54.8184 31.9232 54.8184H31.3379V40.3853L31.987 40.4486C31.987 40.4486 35.0836 40.7865 37.8503 40.3008C38.7973 40.058 39.787 40.3008 40.2764 40.4803C40.7659 40.3325 41.8407 40.058 42.8197 40.3008C45.5863 40.7865 48.651 40.4486 48.6829 40.4486L49.332 40.3853V54.8184H48.7467C48.5658 54.8184 44.5435 54.9134 42.1174 54.5122C41.5959 54.4172 40.9468 54.9029 40.7659 55.0296L40.2764 55.3674L39.755 55.0296H39.7444ZM38.7016 53.3297C39.372 53.298 39.8721 53.6359 40.2339 53.8787C40.6595 53.6042 41.5215 53.2136 42.3515 53.3614C44.1285 53.6676 46.959 53.6676 48.1828 53.6676V41.6628C47.0761 41.7579 44.8095 41.8423 42.6281 41.4517H42.5643C41.6704 41.2088 40.5425 41.5995 40.5425 41.5995L40.2658 41.6628H40.202C40.202 41.6628 39.0953 41.2088 38.2121 41.4517H38.1482C35.9668 41.8423 33.7003 41.7579 32.5936 41.6628V53.6676C33.7854 53.6676 36.6159 53.6676 38.4249 53.3614C38.5242 53.3403 38.6164 53.3297 38.7016 53.3297Z" fill="#B31B1B"/>
  <path d="M42.5129 46.8275L42.4516 48.167L46.5016 48.3495L46.5629 47.01L42.5129 46.8275Z" fill="#B31B1B"/>
  <path d="M42.509 50.5105L42.4477 51.85L46.4978 52.0325L46.5591 50.693L42.509 50.5105Z" fill="#B31B1B"/>
  <path d="M51.0771 43.9223H48.9276V45.7805H51.0771V43.9223Z" fill="#B31B1B"/>
  <path d="M51.0771 49.212H48.9276V51.0702H51.0771V49.212Z" fill="#B31B1B"/>
  <path d="M42.5103 43.2094L42.4591 44.5493L46.5104 44.7017L46.5616 43.3617L42.5103 43.2094Z" fill="#B31B1B"/>
  <path d="M40.2445 66.6331L39.9998 66.5381C39.8189 66.443 35.4241 64.5003 30.9442 61.0583C24.932 56.4338 21.6759 51.3764 21.5801 46.3824C21.7929 35.7185 21.612 21.5283 21.612 21.3804V20.7997H59.0579V21.3804C59.0579 21.5283 59.026 35.9086 59.026 46.3824C59.026 51.3764 55.8018 56.4338 49.6938 61.0583C45.1501 64.5003 40.6702 66.4747 40.4893 66.5381L40.2445 66.6331ZM40.8191 36.4576V65.0599C44.32 63.3495 57.7916 56.1382 57.7916 46.3296V36.4365L40.8191 36.4682V36.4576ZM22.8677 36.4576C22.8677 39.7729 22.8357 43.2149 22.7719 46.3507C22.8996 52.1366 27.6881 57.0356 31.6785 60.087C34.9346 62.5893 38.1908 64.3208 39.6593 65.0493V36.4471H22.8677V36.4576ZM22.8677 35.2962H57.8236C57.8236 29.1724 57.8555 23.6927 57.8555 21.9295H22.7719C22.8038 23.6927 22.8677 29.1513 22.8677 35.2962Z" fill="#B31B1B"/>
</svg>
